<?xml version="1.0" standalone="no"?>
<!DOCTYPE svg PUBLIC "-//W3C//DTD SVG 20010904//EN"
 "http://www.w3.org/TR/2001/REC-SVG-20010904/DTD/svg10.dtd">
<svg version="1.0" xmlns="http://www.w3.org/2000/svg"
 width="1024.000000pt" height="1024.000000pt" viewBox="0 0 1024.000000 1024.000000"
 preserveAspectRatio="xMidYMid meet">
<metadata>
Created by potrace 1.16, written by Peter Selinger 2001-2019
</metadata>
<g transform="translate(0.000000,1024.000000) scale(0.100000,-0.100000)"
fill="#000000" stroke="none">
<path d="M4553 7853 c23 -74 61 -208 72 -253 7 -30 32 -111 55 -180 23 -69 45
-138 50 -155 5 -16 25 -84 45 -150 20 -66 41 -138 46 -160 5 -22 14 -49 19
-60 5 -11 16 -45 24 -75 8 -30 22 -75 30 -100 8 -25 47 -145 86 -267 l72 -223
29 0 c16 0 73 7 127 16 102 17 301 14 372 -5 19 -5 51 -12 71 -15 42 -7 30
-29 105 186 24 70 55 166 69 215 34 121 62 212 95 318 42 131 152 490 195 635
20 69 45 150 55 180 10 30 21 67 24 83 l6 27 -826 0 c-782 0 -826 -1 -821 -17z"/>
<path d="M3638 7264 c-47 -71 -97 -147 -111 -169 -113 -170 -567 -863 -662
-1010 -16 -26 -47 -72 -67 -104 -59 -89 -108 -192 -95 -197 7 -2 66 -15 132
-29 128 -27 166 -36 370 -85 72 -18 175 -40 230 -51 55 -10 141 -27 190 -38
50 -10 158 -33 240 -51 83 -17 164 -35 180 -40 51 -16 308 -51 315 -43 4 5 12
34 19 67 27 122 101 240 258 408 29 31 53 64 53 72 0 18 -120 218 -154 256
-12 14 -60 84 -106 155 -46 72 -104 157 -130 190 -25 33 -68 94 -94 135 -27
41 -59 86 -71 100 -13 14 -47 62 -77 106 -30 45 -60 88 -67 95 -6 8 -53 75
-105 149 -51 74 -109 153 -128 174 l-35 40 -85 -130z"/>
<path d="M6994 7362 c-12 -9 -27 -28 -34 -42 -7 -14 -59 -89 -114 -168 -56
-79 -106 -151 -111 -160 -6 -9 -37 -54 -70 -99 -33 -45 -76 -104 -95 -132 -19
-28 -56 -79 -81 -114 -25 -34 -81 -114 -124 -177 -143 -210 -195 -285 -226
-325 -41 -55 -81 -143 -72 -159 5 -8 39 -47 77 -87 59 -64 102 -121 168 -229
20 -33 78 -177 78 -195 0 -30 25 -33 140 -14 156 25 377 68 605 119 50 11 119
25 155 31 36 6 94 18 130 26 221 52 347 80 465 104 87 17 121 25 182 44 12 4
-94 183 -153 261 -13 17 -24 34 -24 37 0 3 -26 45 -59 94 -230 345 -351 532
-351 541 0 6 -6 15 -13 19 -12 7 -174 243 -268 391 -68 107 -165 246 -175 249
-5 1 -19 -5 -30 -15z"/>
<path d="M5917 5792 c-15 -10 -38 -32 -51 -48 -13 -16 -43 -51 -65 -79 l-41
-49 49 -51 c210 -218 208 -448 -7 -677 -39 -41 -38 -44 25 -114 15 -17 45 -52
66 -78 l39 -46 29 23 c226 172 286 275 313 543 10 101 -47 324 -100 393 -66
84 -194 201 -221 201 -4 0 -20 -8 -36 -18z"/>
<path d="M4210 5024 c-69 -13 -147 -28 -175 -33 -27 -6 -75 -17 -105 -23 -30
-7 -59 -13 -65 -13 -21 -3 -132 -27 -180 -40 -51 -14 -365 -80 -464 -96 -30
-6 -57 -12 -61 -14 -11 -7 -190 -52 -255 -65 -86 -17 -193 -49 -200 -60 -7
-11 32 -83 104 -195 46 -72 61 -95 96 -153 24 -40 301 -462 434 -661 53 -80
98 -149 100 -154 2 -5 31 -48 65 -96 34 -47 75 -108 90 -136 16 -27 43 -70 60
-95 17 -25 36 -54 42 -64 17 -31 43 -44 53 -26 5 8 30 44 55 80 25 36 84 124
132 195 154 229 170 251 206 296 19 24 42 58 51 74 8 17 29 44 46 61 17 18 37
47 45 66 8 19 23 41 32 49 16 13 63 81 139 198 17 26 46 69 66 97 45 61 152
221 168 252 12 22 8 29 -46 86 -155 166 -190 221 -273 429 -12 31 -25 59 -29
60 -3 2 -62 -7 -131 -19z"/>
<path d="M6400 5031 c0 -30 -58 -169 -101 -241 -21 -36 -67 -99 -103 -140 -36
-41 -82 -94 -102 -118 l-37 -42 17 -38 c10 -21 73 -119 141 -218 69 -98 155
-224 192 -279 38 -55 76 -109 87 -120 10 -11 44 -58 77 -105 32 -47 76 -110
98 -140 22 -30 78 -111 125 -180 47 -69 113 -165 147 -215 33 -49 65 -91 69
-93 9 -3 19 6 56 58 39 53 194 290 194 296 0 2 10 15 21 27 12 12 42 54 67 92
25 39 60 88 79 111 18 23 33 43 33 46 0 5 184 285 206 313 8 11 74 110 146
220 71 110 135 207 141 217 87 125 127 190 123 197 -8 12 -124 46 -206 61 -36
7 -85 18 -110 25 -25 8 -61 17 -80 20 -46 8 -53 9 -65 17 -5 3 -43 11 -84 17
-41 7 -78 14 -84 18 -6 3 -20 7 -31 9 -50 7 -199 35 -286 55 -217 47 -278 60
-335 70 -33 6 -73 15 -90 20 -25 8 -283 59 -300 59 -3 0 -5 -9 -5 -19z"/>
<path d="M5061 4248 c-16 -37 -77 -199 -94 -248 -9 -25 -28 -85 -42 -135 -14
-49 -45 -153 -70 -230 -43 -138 -133 -436 -140 -465 -2 -8 -15 -49 -29 -90
-37 -109 -93 -297 -110 -365 -7 -33 -19 -73 -25 -88 -6 -16 -9 -33 -5 -38 7
-11 1641 -12 1648 -1 8 14 -68 286 -173 617 -17 55 -36 114 -40 130 -14 45
-91 296 -103 330 -5 17 -16 55 -24 85 -17 68 -108 351 -141 443 l-25 69 -62
-7 c-33 -4 -68 -11 -76 -15 -29 -15 -204 -22 -275 -10 -139 22 -127 20 -187
36 -12 4 -21 -3 -27 -18z"/>
<path d="M9760 80 l0 -80 80 0 80 0 0 80 0 80 -80 0 -80 0 0 -80z"/>
</g>
</svg>
